<svg width="49" height="49" viewBox="0 0 49 49" fill="none" xmlns="http://www.w3.org/2000/svg">
<circle cx="24.5" cy="24.5" r="24.5" fill="#D9D9D9" fill-opacity="0.3"/>
<path d="M25 14C19.49 14 15 18.49 15 24C15 29.51 19.49 34 25 34C30.51 34 35 29.51 35 24C35 18.49 30.51 14 25 14ZM28.36 26.3C28.65 26.59 28.65 27.07 28.36 27.36C28.21 27.51 28.02 27.58 27.83 27.58C27.64 27.58 27.45 27.51 27.3 27.36L25 25.06L22.7 27.36C22.55 27.51 22.36 27.58 22.17 27.58C21.98 27.58 21.79 27.51 21.64 27.36C21.35 27.07 21.35 26.59 21.64 26.3L23.94 24L21.64 21.7C21.35 21.41 21.35 20.93 21.64 20.64C21.93 20.35 22.41 20.35 22.7 20.64L25 22.94L27.3 20.64C27.59 20.35 28.07 20.35 28.36 20.64C28.65 20.93 28.65 21.41 28.36 21.7L26.06 24L28.36 26.3Z" fill="#292D32"/>
</svg>
